<svg xmlns="http://www.w3.org/2000/svg" xmlns:xlink="http://www.w3.org/1999/xlink" width="1080" zoomAndPan="magnify" viewBox="0 0 810 809.999993" height="1080" preserveAspectRatio="xMidYMid meet" version="1.0"><defs><filter x="0%" y="0%" width="100%" height="100%" id="d99bc41433"><feColorMatrix values="0 0 0 0 1 0 0 0 0 1 0 0 0 0 1 0 0 0 1 0" color-interpolation-filters="sRGB"/></filter><g/><mask id="16b0d83e4e"><g filter="url(#d99bc41433)"><rect x="-81" width="972" fill="#000000" y="-80.999999" height="971.999992" fill-opacity="0.2"/></g></mask><clipPath id="143c86d232"><path d="M 1 1 L 604.75 1 L 604.75 604.75 L 1 604.75 Z M 1 1 " clip-rule="nonzero"/></clipPath><clipPath id="dc73ffe61d"><rect x="0" width="606" y="0" height="606"/></clipPath><clipPath id="cff77450e1"><path d="M 57 22 L 753 22 L 753 788 L 57 788 Z M 57 22 " clip-rule="nonzero"/></clipPath><clipPath id="39c80fe72e"><path d="M -103.722656 302.007812 L 563.328125 -89.09375 L 913.460938 508.082031 L 246.410156 899.183594 Z M -103.722656 302.007812 " clip-rule="nonzero"/></clipPath><clipPath id="ae6e859f03"><path d="M -103.722656 302.007812 L 563.328125 -89.09375 L 913.460938 508.082031 L 246.410156 899.183594 Z M -103.722656 302.007812 " clip-rule="nonzero"/></clipPath></defs><rect x="-81" width="972" fill="#ffffff" y="-80.999999" height="971.999992" fill-opacity="1"/><rect x="-81" width="972" fill="#ffffff" y="-80.999999" height="971.999992" fill-opacity="1"/><g mask="url(#16b0d83e4e)"><g transform="matrix(1, 0, 0, 1, 102, 102)"><g clip-path="url(#dc73ffe61d)"><g clip-path="url(#143c86d232)"><path fill="#000000" d="M 604.75 233.054688 C 604.75 244.253906 595.691406 253.308594 584.496094 253.308594 C 578.75 253.308594 573.589844 250.875 569.886719 246.980469 L 511.65625 278.53125 L 388.957031 278.53125 L 388.957031 298.101562 L 522.269531 298.101562 C 524.410156 289.242188 532.300781 282.71875 541.84375 282.71875 C 553.039062 282.71875 562.097656 291.773438 562.097656 302.972656 C 562.097656 314.171875 553.039062 323.226562 541.84375 323.226562 C 532.300781 323.226562 524.410156 316.605469 522.269531 307.839844 L 388.957031 307.839844 L 388.957031 327.316406 L 522.269531 327.316406 L 566.382812 360.328125 L 566.769531 405.023438 C 575.730469 407.167969 582.351562 415.152344 582.351562 424.695312 C 582.351562 435.894531 573.296875 444.949219 562.097656 444.949219 C 550.898438 444.949219 541.84375 435.894531 541.84375 424.695312 C 541.84375 415.25 548.367188 407.460938 557.035156 405.21875 L 556.644531 365.195312 L 519.054688 337.054688 L 388.957031 337.054688 L 388.957031 356.628906 L 437.257812 356.628906 L 475.820312 387.984375 L 504.449219 387.984375 C 506.589844 380.484375 513.40625 374.933594 521.585938 374.933594 C 531.519531 374.933594 539.503906 383.015625 539.503906 392.851562 C 539.503906 402.785156 531.519531 410.769531 521.585938 410.769531 C 513.40625 410.769531 506.589844 405.316406 504.449219 397.722656 L 472.3125 397.722656 L 433.75 366.367188 L 388.957031 366.367188 L 388.957031 388.761719 L 366.171875 388.761719 L 366.171875 455.855469 L 401.03125 498.996094 L 423.136719 498.410156 C 425.085938 489.257812 433.167969 482.441406 442.90625 482.441406 C 454.007812 482.441406 463.160156 491.5 463.160156 502.695312 C 463.160156 513.894531 454.007812 522.949219 442.90625 522.949219 C 433.558594 522.949219 425.765625 516.621094 423.429688 508.148438 L 396.457031 508.832031 L 356.433594 459.363281 L 356.433594 388.761719 L 336.957031 388.761719 L 336.957031 509.125 L 367.242188 565.019531 C 368.898438 564.53125 370.746094 564.238281 372.597656 564.238281 C 383.796875 564.238281 392.851562 573.296875 392.851562 584.496094 C 392.851562 595.59375 383.796875 604.75 372.597656 604.75 C 361.398438 604.75 352.34375 595.59375 352.34375 584.496094 C 352.34375 578.652344 354.875 573.492188 358.671875 569.789062 L 327.21875 511.558594 L 327.21875 388.761719 L 307.644531 388.761719 L 307.644531 522.171875 C 316.507812 524.3125 323.03125 532.300781 323.03125 541.746094 C 323.03125 552.945312 313.972656 562 302.777344 562 C 291.578125 562 282.523438 552.945312 282.523438 541.746094 C 282.523438 532.300781 289.046875 524.410156 297.90625 522.171875 L 297.90625 388.761719 L 278.335938 388.761719 L 278.335938 522.171875 L 245.421875 566.285156 L 200.625 566.675781 C 198.582031 575.632812 190.597656 582.253906 181.054688 582.253906 C 169.855469 582.253906 160.796875 573.199219 160.796875 562 C 160.796875 550.800781 169.855469 541.746094 181.054688 541.746094 C 190.402344 541.746094 198.289062 548.269531 200.527344 556.9375 L 240.550781 556.644531 L 268.597656 518.957031 L 268.597656 388.761719 L 249.121094 388.761719 L 249.121094 437.160156 L 217.667969 475.722656 L 217.667969 504.347656 C 225.261719 506.492188 230.8125 513.308594 230.8125 521.488281 C 230.8125 531.421875 222.730469 539.40625 212.796875 539.40625 C 202.964844 539.40625 194.882812 531.421875 194.882812 521.488281 C 194.882812 513.308594 200.429688 506.492188 207.929688 504.347656 L 207.929688 472.3125 L 239.382812 433.75 L 239.382812 388.761719 L 217.082031 388.761719 L 217.082031 366.074219 L 149.792969 366.074219 L 106.753906 400.933594 L 107.335938 423.039062 C 116.492188 424.988281 123.308594 433.070312 123.308594 442.808594 C 123.308594 454.007812 114.25 463.0625 103.050781 463.0625 C 91.855469 463.0625 82.796875 454.007812 82.796875 442.808594 C 82.796875 433.460938 89.03125 425.765625 97.597656 423.332031 L 96.917969 396.359375 L 146.386719 356.335938 L 217.082031 356.335938 L 217.082031 336.859375 L 96.625 336.859375 L 40.730469 367.144531 C 41.21875 368.898438 41.507812 370.648438 41.507812 372.597656 C 41.507812 383.699219 32.453125 392.851562 21.253906 392.851562 C 10.054688 392.851562 1 383.699219 1 372.597656 C 1 361.398438 10.054688 352.34375 21.253906 352.34375 C 27.097656 352.34375 32.257812 354.777344 35.957031 358.671875 L 94.191406 327.121094 L 217.082031 327.121094 L 217.082031 307.546875 L 83.578125 307.546875 C 81.335938 316.410156 73.449219 322.933594 64.003906 322.933594 C 52.804688 322.933594 43.75 313.878906 43.75 302.679688 C 43.75 291.480469 52.804688 282.425781 64.003906 282.425781 C 73.449219 282.425781 81.335938 289.046875 83.578125 297.8125 L 217.082031 297.8125 L 217.082031 278.335938 L 83.578125 278.335938 L 39.464844 245.324219 L 38.976562 200.625 C 30.117188 198.484375 23.492188 190.5 23.492188 180.957031 C 23.492188 169.757812 32.550781 160.699219 43.75 160.699219 C 54.851562 160.699219 64.003906 169.757812 64.003906 180.957031 C 64.003906 190.402344 57.480469 198.191406 48.714844 200.527344 L 49.105469 240.453125 L 86.789062 268.597656 L 217.082031 268.597656 L 217.082031 249.023438 L 168.589844 249.023438 L 129.929688 217.667969 L 101.398438 217.667969 C 99.253906 225.164062 92.4375 230.714844 84.257812 230.714844 C 74.324219 230.714844 66.242188 222.632812 66.242188 212.796875 C 66.242188 202.867188 74.324219 194.882812 84.257812 194.882812 C 92.4375 194.882812 99.253906 200.429688 101.398438 207.929688 L 133.433594 207.929688 L 171.996094 239.285156 L 217.082031 239.285156 L 217.082031 216.890625 L 239.578125 216.890625 L 239.578125 149.792969 L 204.8125 106.65625 L 182.707031 107.238281 C 180.761719 116.394531 172.679688 123.210938 162.941406 123.210938 C 151.742188 123.210938 142.6875 114.152344 142.6875 102.957031 C 142.6875 91.757812 151.742188 82.699219 162.941406 82.699219 C 172.191406 82.699219 179.980469 89.03125 182.320312 97.503906 L 209.292969 96.820312 L 249.316406 146.289062 L 249.316406 216.890625 L 268.886719 216.890625 L 268.886719 96.625 L 238.601562 40.632812 C 236.851562 41.121094 235.097656 41.410156 233.148438 41.410156 C 221.953125 41.410156 212.894531 32.355469 212.894531 21.253906 C 212.894531 10.054688 221.953125 1 233.148438 1 C 244.347656 1 253.40625 10.054688 253.40625 21.253906 C 253.40625 27 250.96875 32.160156 247.074219 35.859375 L 278.625 94.09375 L 278.625 216.890625 L 298.199219 216.890625 L 298.199219 83.480469 C 289.335938 81.335938 282.8125 73.351562 282.8125 63.90625 C 282.8125 52.707031 291.871094 43.652344 303.066406 43.652344 C 314.167969 43.652344 323.324219 52.707031 323.324219 63.90625 C 323.324219 73.351562 316.699219 81.335938 307.9375 83.480469 L 307.9375 216.890625 L 327.414062 216.890625 L 327.414062 83.480469 L 360.328125 39.367188 L 405.121094 38.976562 C 407.261719 30.019531 415.25 23.398438 424.792969 23.398438 C 435.992188 23.398438 445.046875 32.453125 445.046875 43.652344 C 445.046875 54.851562 435.992188 63.90625 424.792969 63.90625 C 415.347656 63.90625 407.457031 57.382812 405.21875 48.714844 L 365.292969 49.007812 L 337.152344 86.691406 L 337.152344 216.890625 L 356.722656 216.890625 L 356.722656 168.492188 L 388.078125 129.929688 L 388.078125 101.300781 C 380.582031 99.15625 375.03125 92.339844 375.03125 84.160156 C 375.03125 74.226562 383.015625 66.242188 392.949219 66.242188 C 402.882812 66.242188 410.867188 74.226562 410.867188 84.160156 C 410.867188 92.339844 405.316406 99.15625 397.816406 101.300781 L 397.816406 133.335938 L 366.460938 171.996094 L 366.460938 216.890625 L 388.957031 216.890625 L 388.957031 239.578125 L 455.953125 239.578125 L 499.09375 204.714844 L 498.410156 182.609375 C 489.355469 180.664062 482.539062 172.582031 482.539062 162.84375 C 482.539062 151.644531 491.59375 142.589844 502.792969 142.589844 C 513.992188 142.589844 523.046875 151.644531 523.046875 162.84375 C 523.046875 172.191406 516.71875 179.882812 508.148438 182.320312 L 508.925781 209.292969 L 459.457031 249.316406 L 388.957031 249.316406 L 388.957031 268.792969 L 509.121094 268.792969 L 565.113281 238.507812 C 564.628906 236.753906 564.238281 235 564.238281 233.054688 C 564.238281 221.953125 573.296875 212.796875 584.492188 212.796875 C 595.691406 212.796875 604.75 221.953125 604.75 233.054688 Z M 604.75 233.054688 " fill-opacity="1" fill-rule="nonzero"/></g></g></g></g><g clip-path="url(#cff77450e1)"><g clip-path="url(#39c80fe72e)"><g clip-path="url(#ae6e859f03)"><path fill="#4154f5" d="M 702.347656 631.976562 L 457.921875 775.285156 C 430.246094 791.511719 385.035156 791.816406 357.140625 775.960938 L 110.816406 635.9375 C 82.925781 620.082031 60.058594 581.078125 59.84375 548.996094 L 57.945312 265.660156 C 57.730469 233.578125 80.074219 194.273438 107.75 178.046875 L 352.175781 34.734375 C 379.855469 18.507812 425.066406 18.203125 452.957031 34.058594 L 699.28125 174.082031 C 727.175781 189.941406 750.039062 228.941406 750.253906 261.023438 L 752.152344 544.359375 C 752.367188 576.441406 730.027344 615.746094 702.347656 631.976562 Z M 113.121094 187.207031 C 88.78125 201.476562 68.375 237.371094 68.566406 265.589844 L 70.460938 548.925781 C 70.648438 577.140625 91.535156 612.761719 116.066406 626.703125 L 362.390625 766.726562 C 386.921875 780.671875 428.210938 780.394531 452.550781 766.125 L 696.976562 622.8125 C 721.320312 608.542969 741.722656 572.648438 741.53125 544.429688 L 739.636719 261.09375 C 739.449219 232.878906 718.5625 197.261719 694.03125 183.316406 L 447.707031 43.292969 C 423.179688 29.347656 381.890625 29.625 357.550781 43.894531 Z M 113.121094 187.207031 " fill-opacity="1" fill-rule="nonzero"/></g></g></g><path fill="#ffffff" d="M 223.398438 399.507812 L 586.574219 399.507812 C 594.207031 399.507812 600.394531 405.695312 600.394531 413.328125 L 600.394531 477.8125 C 600.394531 485.445312 594.207031 491.632812 586.574219 491.632812 L 223.398438 491.632812 C 215.769531 491.632812 209.582031 485.445312 209.582031 477.8125 L 209.582031 413.328125 C 209.582031 405.695312 215.769531 399.507812 223.398438 399.507812 Z M 223.398438 399.507812 " fill-opacity="1" fill-rule="nonzero"/><g fill="#9e47e5" fill-opacity="1"><g transform="translate(220.685676, 469.121902)"><g><path d="M 4.734375 -55.03125 C 4.679688 -55.03125 4.765625 -55.054688 4.984375 -55.109375 C 5.253906 -55.160156 6.066406 -55.1875 7.421875 -55.1875 C 8.785156 -55.1875 10.773438 -55.1875 13.390625 -55.1875 L 22.453125 -55.1875 L 22.453125 6.203125 L 6.203125 6.203125 L 6.203125 -23.34375 C 6.203125 -33.25 6.1875 -40.675781 6.15625 -45.625 C 6.132812 -50.582031 6.097656 -53.171875 6.046875 -53.390625 C 5.878906 -54.097656 5.441406 -54.644531 4.734375 -55.03125 Z M 24.578125 -55.1875 L 30.609375 -55.1875 C 32.191406 -55.1875 33.515625 -55.1875 34.578125 -55.1875 C 35.640625 -55.1875 36.46875 -55.160156 37.0625 -55.109375 C 37.601562 -55.054688 38.144531 -54.988281 38.6875 -54.90625 C 39.238281 -54.820312 39.785156 -54.671875 40.328125 -54.453125 C 41.796875 -54.078125 43.207031 -53.46875 44.5625 -52.625 C 45.925781 -51.78125 47.164062 -50.785156 48.28125 -49.640625 C 49.40625 -48.492188 50.375 -47.226562 51.1875 -45.84375 C 52 -44.457031 52.625 -43.054688 53.0625 -41.640625 C 54.644531 -36.628906 54.289062 -31.835938 52 -27.265625 C 50.695312 -24.648438 48.957031 -22.472656 46.78125 -20.734375 C 44.601562 -18.992188 42.125 -17.71875 39.34375 -16.90625 C 37.382812 -16.414062 34.117188 -16.171875 29.546875 -16.171875 L 24.578125 -16.171875 L 24.578125 -27.671875 L 27.84375 -27.765625 C 29.90625 -27.765625 31.210938 -27.816406 31.765625 -27.921875 C 35.460938 -29.171875 37.175781 -31.972656 36.90625 -36.328125 C 36.738281 -39.378906 35.566406 -41.335938 33.390625 -42.203125 C 32.898438 -42.421875 31.296875 -42.53125 28.578125 -42.53125 L 24.578125 -42.53125 Z M 24.578125 -55.1875 "/></g></g></g><g fill="#9e47e5" fill-opacity="1"><g transform="translate(276.933662, 469.121902)"><g><path d="M 22.859375 -29.3125 L 27.59375 -29.3125 C 28.957031 -29.3125 30.046875 -29.320312 30.859375 -29.34375 C 31.671875 -29.375 32.242188 -29.414062 32.578125 -29.46875 C 33.171875 -29.519531 33.929688 -29.765625 34.859375 -30.203125 C 36.003906 -30.804688 36.847656 -31.707031 37.390625 -32.90625 C 38.148438 -34.59375 38.285156 -36.390625 37.796875 -38.296875 C 37.304688 -40.304688 36.191406 -41.640625 34.453125 -42.296875 L 33.640625 -42.78125 L 28.25 -42.859375 L 24.65625 -42.859375 L 24.65625 -55.1875 C 27.425781 -55.1875 29.671875 -55.1875 31.390625 -55.1875 C 33.109375 -55.1875 34.457031 -55.1875 35.4375 -55.1875 C 36.414062 -55.1875 37.117188 -55.171875 37.546875 -55.140625 C 37.984375 -55.117188 38.285156 -55.109375 38.453125 -55.109375 C 43.078125 -54.722656 46.773438 -53.398438 49.546875 -51.140625 C 52.328125 -48.890625 54.15625 -45.453125 55.03125 -40.828125 C 55.738281 -36.359375 55.234375 -32.625 53.515625 -29.625 C 51.796875 -26.632812 49.0625 -24.84375 45.3125 -24.25 L 44.171875 -24.171875 L 45.234375 -23.921875 C 48.828125 -23.378906 51.273438 -21.609375 52.578125 -18.609375 C 52.953125 -17.847656 53.265625 -16.734375 53.515625 -15.265625 C 53.765625 -13.796875 53.992188 -11.921875 54.203125 -9.640625 C 54.859375 -1.140625 55.1875 3.953125 55.1875 5.640625 L 55.1875 6.203125 L 37.875 6.203125 L 37.71875 5.46875 C 37.664062 5.144531 37.625 4.585938 37.59375 3.796875 C 37.570312 3.003906 37.503906 2.007812 37.390625 0.8125 C 36.898438 -8.164062 36.25 -13.523438 35.4375 -15.265625 C 35.164062 -15.804688 34.238281 -16.242188 32.65625 -16.578125 C 32.0625 -16.679688 30.238281 -16.789062 27.1875 -16.90625 L 22.859375 -16.90625 L 22.859375 6.203125 L 6.28125 6.203125 L 6.28125 -23.515625 C 6.34375 -30.703125 6.359375 -36.414062 6.328125 -40.65625 C 6.296875 -44.90625 6.28125 -47.765625 6.28125 -49.234375 C 6.175781 -52.003906 6.066406 -53.5 5.953125 -53.71875 C 5.679688 -54.375 5.25 -54.835938 4.65625 -55.109375 C 4.976562 -55.109375 5.359375 -55.109375 5.796875 -55.109375 C 6.234375 -55.109375 6.738281 -55.117188 7.3125 -55.140625 C 7.882812 -55.171875 8.550781 -55.1875 9.3125 -55.1875 L 22.859375 -55.1875 Z M 22.859375 -29.3125 "/></g></g></g><g fill="#9e47e5" fill-opacity="1"><g transform="translate(337.426783, 469.121902)"><g><path d="M 29.796875 -55.671875 C 30.234375 -55.785156 30.613281 -55.84375 30.9375 -55.84375 C 31.15625 -55.84375 31.375 -55.84375 31.59375 -55.84375 L 31.921875 -55.921875 L 31.921875 -49.5625 C 31.921875 -45.257812 31.835938 -43.109375 31.671875 -43.109375 C 30.804688 -43.109375 29.554688 -42.726562 27.921875 -41.96875 C 23.078125 -39.675781 20.789062 -33.578125 21.0625 -23.671875 C 21.113281 -22.046875 21.289062 -20.222656 21.59375 -18.203125 C 21.894531 -16.191406 22.425781 -14.257812 23.1875 -12.40625 C 23.945312 -10.5625 24.976562 -8.957031 26.28125 -7.59375 C 27.59375 -6.226562 29.253906 -5.410156 31.265625 -5.140625 L 31.84375 -5.0625 L 31.921875 0.984375 L 31.921875 7.109375 L 31.109375 7.109375 C 28.984375 7.109375 26.859375 6.847656 24.734375 6.328125 C 22.609375 5.804688 20.59375 5.066406 18.6875 4.109375 C 16.789062 3.160156 15.023438 1.976562 13.390625 0.5625 C 11.753906 -0.84375 10.335938 -2.445312 9.140625 -4.25 C 6.367188 -8.332031 4.570312 -13.472656 3.75 -19.671875 C 3.695312 -20.160156 3.671875 -20.835938 3.671875 -21.703125 C 3.671875 -22.578125 3.671875 -23.644531 3.671875 -24.90625 C 3.671875 -26.101562 3.679688 -27.132812 3.703125 -28 C 3.734375 -28.875 3.78125 -29.582031 3.84375 -30.125 C 4.21875 -32.738281 4.867188 -35.28125 5.796875 -37.75 C 6.722656 -40.226562 7.929688 -42.53125 9.421875 -44.65625 C 10.921875 -46.78125 12.691406 -48.644531 14.734375 -50.25 C 16.773438 -51.851562 19.101562 -53.09375 21.71875 -53.96875 C 24.113281 -54.945312 26.804688 -55.515625 29.796875 -55.671875 Z M 33.796875 -49.5625 L 33.796875 -55.921875 L 34.53125 -55.921875 C 36.757812 -55.921875 38.945312 -55.617188 41.09375 -55.015625 C 43.25 -54.421875 45.28125 -53.59375 47.1875 -52.53125 C 49.09375 -51.46875 50.875 -50.1875 52.53125 -48.6875 C 54.195312 -47.195312 55.628906 -45.523438 56.828125 -43.671875 C 59.648438 -39.378906 61.414062 -34.566406 62.125 -29.234375 C 62.238281 -28.796875 62.304688 -28.15625 62.328125 -27.3125 C 62.359375 -26.46875 62.375 -25.5 62.375 -24.40625 C 62.257812 -21.25 61.875 -18.144531 61.21875 -15.09375 C 60.570312 -12.050781 59.40625 -9.144531 57.71875 -6.375 C 55.4375 -2.5625 52.539062 0.457031 49.03125 2.6875 C 45.519531 4.925781 41.476562 6.316406 36.90625 6.859375 C 36.46875 6.910156 36.082031 6.945312 35.75 6.96875 C 35.425781 7 35.15625 7.015625 34.9375 7.015625 L 34.296875 7.015625 L 34.203125 3.84375 C 34.148438 1.820312 34.148438 -0.191406 34.203125 -2.203125 L 34.296875 -5.140625 L 35.34375 -5.390625 C 37.363281 -5.984375 39 -6.90625 40.25 -8.15625 C 41.5 -9.414062 42.460938 -10.859375 43.140625 -12.484375 C 43.828125 -14.117188 44.304688 -15.875 44.578125 -17.75 C 44.847656 -19.632812 45.007812 -21.53125 45.0625 -23.4375 C 45.226562 -27.507812 44.765625 -31.207031 43.671875 -34.53125 C 41.984375 -39.707031 39.15625 -42.59375 35.1875 -43.1875 L 33.875 -43.4375 Z M 33.796875 -49.5625 "/></g></g></g><g fill="#9e47e5" fill-opacity="1"><g transform="translate(403.471224, 469.121902)"><g><path d="M 4.8125 -54.9375 C 4.707031 -55 4.765625 -55.054688 4.984375 -55.109375 C 5.304688 -55.160156 6.515625 -55.1875 8.609375 -55.1875 C 10.703125 -55.1875 13.710938 -55.1875 17.640625 -55.1875 C 26.503906 -55.1875 30.992188 -55.132812 31.109375 -55.03125 C 31.210938 -54.476562 31.78125 -51.78125 32.8125 -46.9375 C 32.8125 -46.882812 32.851562 -46.65625 32.9375 -46.25 C 33.019531 -45.84375 33.113281 -45.394531 33.21875 -44.90625 C 33.332031 -44.414062 33.429688 -43.9375 33.515625 -43.46875 C 33.597656 -43.007812 33.664062 -42.671875 33.71875 -42.453125 C 34.59375 -38.535156 35.421875 -34.65625 36.203125 -30.8125 C 36.992188 -26.976562 37.769531 -23.101562 38.53125 -19.1875 C 38.75 -17.71875 38.914062 -16.925781 39.03125 -16.8125 L 40.078125 -20.578125 C 40.296875 -21.390625 40.566406 -22.515625 40.890625 -23.953125 C 41.222656 -25.398438 41.609375 -27.160156 42.046875 -29.234375 C 42.484375 -30.640625 42.863281 -32.078125 43.1875 -33.546875 C 43.507812 -35.023438 43.8125 -36.5 44.09375 -37.96875 C 44.363281 -38.882812 44.609375 -39.863281 44.828125 -40.90625 C 45.035156 -41.71875 45.25 -42.625 45.46875 -43.625 C 45.6875 -44.632812 45.878906 -45.601562 46.046875 -46.53125 C 47.347656 -51.863281 48 -54.5625 48 -54.625 L 48.171875 -55.1875 L 72.09375 -55.1875 L 72.09375 6.203125 L 56.171875 6.203125 L 56.171875 -43.265625 L 55.265625 -39.84375 C 53.640625 -33.414062 52.050781 -26.691406 50.5 -19.671875 C 48.945312 -12.648438 47.4375 -5.300781 45.96875 2.375 L 45.234375 6.203125 L 31.109375 6.203125 L 30.609375 3.421875 C 29.898438 -0.710938 29.25 -4.453125 28.65625 -7.796875 C 28.0625 -11.140625 27.515625 -14.117188 27.015625 -16.734375 C 26.097656 -21.691406 25.335938 -25.71875 24.734375 -28.8125 C 24.140625 -31.914062 23.707031 -34.175781 23.4375 -35.59375 C 23.15625 -37.007812 22.929688 -38.140625 22.765625 -38.984375 C 22.609375 -39.828125 22.503906 -40.382812 22.453125 -40.65625 C 22.453125 -40.875 22.4375 -40.765625 22.40625 -40.328125 C 22.382812 -39.890625 22.375 -38.773438 22.375 -36.984375 C 22.425781 -36.109375 22.4375 -35.085938 22.40625 -33.921875 C 22.382812 -32.753906 22.375 -31.460938 22.375 -30.046875 C 22.3125 -28.628906 22.28125 -26.882812 22.28125 -24.8125 C 22.28125 -22.75 22.28125 -20.382812 22.28125 -17.71875 L 22.28125 6.203125 L 6.046875 6.203125 L 6.046875 -23.84375 C 6.046875 -31.300781 6.046875 -37.207031 6.046875 -41.5625 C 6.046875 -45.914062 6.015625 -48.742188 5.953125 -50.046875 C 5.847656 -52.660156 5.742188 -54.078125 5.640625 -54.296875 C 5.523438 -54.566406 5.25 -54.78125 4.8125 -54.9375 Z M 4.8125 -54.9375 "/></g></g></g><g fill="#9e47e5" fill-opacity="1"><g transform="translate(481.67961, 469.121902)"><g><path d="M 4.734375 -55.03125 C 4.679688 -55.03125 4.765625 -55.054688 4.984375 -55.109375 C 5.253906 -55.160156 6.066406 -55.1875 7.421875 -55.1875 C 8.785156 -55.1875 10.773438 -55.1875 13.390625 -55.1875 L 22.453125 -55.1875 L 22.453125 6.203125 L 6.203125 6.203125 L 6.203125 -23.34375 C 6.203125 -33.25 6.1875 -40.675781 6.15625 -45.625 C 6.132812 -50.582031 6.097656 -53.171875 6.046875 -53.390625 C 5.878906 -54.097656 5.441406 -54.644531 4.734375 -55.03125 Z M 24.578125 -55.1875 L 30.609375 -55.1875 C 32.191406 -55.1875 33.515625 -55.1875 34.578125 -55.1875 C 35.640625 -55.1875 36.46875 -55.160156 37.0625 -55.109375 C 37.601562 -55.054688 38.144531 -54.988281 38.6875 -54.90625 C 39.238281 -54.820312 39.785156 -54.671875 40.328125 -54.453125 C 41.796875 -54.078125 43.207031 -53.46875 44.5625 -52.625 C 45.925781 -51.78125 47.164062 -50.785156 48.28125 -49.640625 C 49.40625 -48.492188 50.375 -47.226562 51.1875 -45.84375 C 52 -44.457031 52.625 -43.054688 53.0625 -41.640625 C 54.644531 -36.628906 54.289062 -31.835938 52 -27.265625 C 50.695312 -24.648438 48.957031 -22.472656 46.78125 -20.734375 C 44.601562 -18.992188 42.125 -17.71875 39.34375 -16.90625 C 37.382812 -16.414062 34.117188 -16.171875 29.546875 -16.171875 L 24.578125 -16.171875 L 24.578125 -27.671875 L 27.84375 -27.765625 C 29.90625 -27.765625 31.210938 -27.816406 31.765625 -27.921875 C 35.460938 -29.171875 37.175781 -31.972656 36.90625 -36.328125 C 36.738281 -39.378906 35.566406 -41.335938 33.390625 -42.203125 C 32.898438 -42.421875 31.296875 -42.53125 28.578125 -42.53125 L 24.578125 -42.53125 Z M 24.578125 -55.1875 "/></g></g></g><g fill="#9e47e5" fill-opacity="1"><g transform="translate(537.927595, 469.121902)"><g><path d="M 1.640625 -55.1875 L 49.71875 -55.1875 L 49.71875 -42.703125 L 1.640625 -42.703125 Z M 16.8125 -39.84375 L 16.40625 -40.25 L 34.046875 -40.25 L 34.046875 6.203125 L 17.546875 6.203125 L 17.546875 -16 C 17.546875 -23.625 17.546875 -29.351562 17.546875 -33.1875 C 17.546875 -37.019531 17.519531 -38.992188 17.46875 -39.109375 C 17.414062 -39.328125 17.195312 -39.570312 16.8125 -39.84375 Z M 16.8125 -39.84375 "/></g></g></g><path fill="#ffffff" d="M 310.800781 316.65625 L 499.1875 316.65625 C 502.855469 316.65625 506.367188 318.113281 508.960938 320.703125 C 511.550781 323.296875 513.007812 326.808594 513.007812 330.476562 L 513.007812 394.960938 C 513.007812 398.625 511.550781 402.140625 508.960938 404.730469 C 506.367188 407.324219 502.855469 408.777344 499.1875 408.777344 L 310.800781 408.777344 C 303.167969 408.777344 296.980469 402.59375 296.980469 394.960938 L 296.980469 330.476562 C 296.980469 322.84375 303.167969 316.65625 310.800781 316.65625 Z M 310.800781 316.65625 " fill-opacity="1" fill-rule="nonzero"/><g fill="#9e47e5" fill-opacity="1"><g transform="translate(308.085359, 386.269759)"><g><path d="M 4.65625 -55.1875 L 22.609375 -55.1875 L 22.609375 6.203125 L 6.046875 6.203125 L 6.046875 -28.40625 C 6.046875 -34.832031 6.046875 -39.910156 6.046875 -43.640625 C 6.046875 -47.367188 6.015625 -49.773438 5.953125 -50.859375 C 5.898438 -52.984375 5.738281 -54.179688 5.46875 -54.453125 L 5.3125 -54.625 C 5.195312 -54.726562 5.082031 -54.832031 4.96875 -54.9375 C 4.863281 -55.050781 4.757812 -55.132812 4.65625 -55.1875 Z M 24.734375 -55.1875 L 27.515625 -55.1875 L 28.8125 -52.09375 C 29.09375 -51.539062 29.503906 -50.585938 30.046875 -49.234375 C 30.535156 -47.921875 30.863281 -47.101562 31.03125 -46.78125 C 31.945312 -44.550781 32.988281 -41.976562 34.15625 -39.0625 C 35.332031 -36.15625 36.628906 -32.847656 38.046875 -29.140625 C 40.929688 -21.796875 42.726562 -16.984375 43.4375 -14.703125 L 43.765625 -13.875 L 43.84375 -18.609375 L 43.84375 -38.53125 C 43.726562 -48.820312 43.617188 -54.078125 43.515625 -54.296875 C 43.347656 -54.566406 43.019531 -54.863281 42.53125 -55.1875 L 59.921875 -55.1875 L 59.921875 6.203125 L 39.03125 6.203125 L 36.5 -0.25 C 34.59375 -5.09375 32.726562 -9.675781 30.90625 -14 C 29.082031 -18.320312 27.328125 -22.445312 25.640625 -26.375 L 24.734375 -28.5 Z M 24.734375 -55.1875 "/></g></g></g><g fill="#9e47e5" fill-opacity="1"><g transform="translate(374.129801, 386.269759)"><g><path d="M 4.65625 -55.03125 C 6.125 -55.03125 8.65625 -55.054688 12.25 -55.109375 C 15.351562 -55.109375 19.773438 -55.117188 25.515625 -55.140625 C 31.253906 -55.171875 38.832031 -55.1875 48.25 -55.1875 L 48.25 -42.53125 L 22.453125 -42.53125 L 22.453125 -6.453125 L 50.625 -6.453125 L 50.625 -6.046875 C 50.625 -6.097656 50.582031 -5.945312 50.5 -5.59375 C 50.414062 -5.238281 50.304688 -4.757812 50.171875 -4.15625 C 50.035156 -3.5625 49.898438 -2.894531 49.765625 -2.15625 C 49.628906 -1.425781 49.476562 -0.707031 49.3125 0 C 48.5 3.863281 48.0625 5.847656 48 5.953125 C 47.945312 6.117188 40.984375 6.203125 27.109375 6.203125 L 6.375 6.203125 L 6.375 -23.4375 C 6.375 -33.394531 6.359375 -40.78125 6.328125 -45.59375 C 6.296875 -50.414062 6.226562 -53.015625 6.125 -53.390625 C 5.957031 -54.210938 5.46875 -54.757812 4.65625 -55.03125 Z M 25.140625 -31.1875 L 46.9375 -31.1875 L 46.9375 -18.703125 L 25.140625 -18.703125 Z M 25.140625 -31.1875 "/></g></g></g><g fill="#9e47e5" fill-opacity="1"><g transform="translate(427.520498, 386.269759)"><g><path d="M 0.890625 -55.03125 C 0.835938 -55.03125 0.945312 -55.054688 1.21875 -55.109375 C 1.550781 -55.160156 2.34375 -55.1875 3.59375 -55.1875 C 4.84375 -55.1875 6.582031 -55.1875 8.8125 -55.1875 L 17.3125 -55.1875 L 17.546875 -53.46875 C 17.828125 -52.21875 17.992188 -51.050781 18.046875 -49.96875 C 18.097656 -49.75 18.164062 -49.3125 18.25 -48.65625 C 18.332031 -48 18.484375 -47.128906 18.703125 -46.046875 C 18.804688 -45.285156 18.882812 -44.644531 18.9375 -44.125 C 18.988281 -43.601562 19.046875 -43.238281 19.109375 -43.03125 C 19.160156 -42.644531 19.238281 -42.109375 19.34375 -41.421875 C 19.457031 -40.742188 19.566406 -39.863281 19.671875 -38.78125 C 19.722656 -38.394531 19.800781 -37.765625 19.90625 -36.890625 C 20.019531 -36.023438 20.1875 -34.882812 20.40625 -33.46875 C 20.519531 -32.925781 20.6875 -31.703125 20.90625 -29.796875 C 20.90625 -29.628906 20.941406 -29.175781 21.015625 -28.4375 C 21.097656 -27.707031 21.191406 -26.894531 21.296875 -26 C 21.410156 -25.101562 21.519531 -24.273438 21.625 -23.515625 C 21.738281 -22.753906 21.820312 -22.289062 21.875 -22.125 C 21.875 -21.851562 21.957031 -21.335938 22.125 -20.578125 C 22.175781 -20.304688 22.226562 -19.976562 22.28125 -19.59375 C 22.34375 -19.207031 22.398438 -18.71875 22.453125 -18.125 C 22.671875 -16.4375 22.832031 -15.59375 22.9375 -15.59375 C 23.050781 -15.59375 23.1875 -16.191406 23.34375 -17.390625 C 23.613281 -18.640625 23.976562 -20.40625 24.4375 -22.6875 C 24.90625 -24.976562 25.46875 -27.894531 26.125 -31.4375 C 26.394531 -32.738281 26.597656 -33.742188 26.734375 -34.453125 C 26.867188 -35.160156 26.960938 -35.597656 27.015625 -35.765625 C 27.015625 -35.765625 27.234375 -36.878906 27.671875 -39.109375 C 28.273438 -42.097656 28.601562 -43.617188 28.65625 -43.671875 C 28.925781 -44.929688 29.128906 -45.984375 29.265625 -46.828125 C 29.398438 -47.671875 29.523438 -48.304688 29.640625 -48.734375 C 29.640625 -48.898438 29.691406 -49.238281 29.796875 -49.75 C 29.910156 -50.269531 30.003906 -50.800781 30.078125 -51.34375 C 30.160156 -51.894531 30.253906 -52.398438 30.359375 -52.859375 C 30.472656 -53.328125 30.53125 -53.585938 30.53125 -53.640625 L 30.9375 -55.1875 L 37.71875 -55.1875 C 42.175781 -55.1875 44.40625 -55.132812 44.40625 -55.03125 C 44.40625 -54.914062 44.515625 -54.285156 44.734375 -53.140625 C 44.953125 -52.003906 45.28125 -50.398438 45.71875 -48.328125 C 45.882812 -47.460938 46.019531 -46.726562 46.125 -46.125 C 46.238281 -45.53125 46.320312 -45.097656 46.375 -44.828125 C 46.863281 -41.554688 47.40625 -38.328125 48 -35.140625 C 48.601562 -31.960938 49.226562 -28.765625 49.875 -25.546875 C 49.875 -25.390625 49.941406 -24.925781 50.078125 -24.15625 C 50.222656 -23.394531 50.363281 -22.578125 50.5 -21.703125 C 50.632812 -20.835938 50.753906 -20.050781 50.859375 -19.34375 C 50.972656 -18.632812 51.054688 -18.253906 51.109375 -18.203125 C 51.210938 -18.148438 51.296875 -17.742188 51.359375 -16.984375 C 51.460938 -16.546875 51.539062 -16.175781 51.59375 -15.875 C 51.644531 -15.582031 51.703125 -15.296875 51.765625 -15.015625 C 51.765625 -14.691406 51.789062 -14.421875 51.84375 -14.203125 C 51.894531 -14.253906 53.066406 -21.65625 55.359375 -36.40625 C 55.785156 -39.351562 56.117188 -41.65625 56.359375 -43.3125 C 56.609375 -44.96875 56.789062 -46.066406 56.90625 -46.609375 C 57.34375 -49.003906 57.585938 -50.691406 57.640625 -51.671875 C 57.804688 -52.328125 57.941406 -53.019531 58.046875 -53.75 C 58.148438 -54.488281 58.203125 -54.882812 58.203125 -54.9375 L 58.296875 -55.1875 L 72.578125 -55.1875 L 71.84375 -51.515625 C 71.132812 -47.484375 70.507812 -43.941406 69.96875 -40.890625 C 69.425781 -37.847656 68.9375 -35.238281 68.5 -33.0625 C 68.5 -33.0625 68.398438 -32.648438 68.203125 -31.828125 C 68.015625 -31.015625 67.796875 -29.992188 67.546875 -28.765625 C 67.304688 -27.546875 67.050781 -26.226562 66.78125 -24.8125 C 66.507812 -23.40625 66.25 -22.0625 66 -20.78125 C 65.757812 -19.5 65.554688 -18.378906 65.390625 -17.421875 C 65.234375 -16.472656 65.125 -15.890625 65.0625 -15.671875 C 64.6875 -13.878906 64.414062 -12.492188 64.25 -11.515625 C 64.082031 -10.535156 63.972656 -9.9375 63.921875 -9.71875 C 63.816406 -8.789062 63.625 -7.5625 63.34375 -6.03125 C 63.070312 -4.507812 62.722656 -2.660156 62.296875 -0.484375 C 61.472656 3.867188 61.035156 6.046875 60.984375 6.046875 C 60.929688 6.046875 60.535156 6.046875 59.796875 6.046875 C 59.066406 6.046875 57.992188 6.070312 56.578125 6.125 C 55.109375 6.175781 53.675781 6.203125 52.28125 6.203125 C 50.894531 6.203125 49.578125 6.203125 48.328125 6.203125 L 43.921875 6.203125 C 43.921875 5.929688 43.566406 3.875 42.859375 0.03125 C 42.148438 -3.800781 41.085938 -9.445312 39.671875 -16.90625 C 39.398438 -18.3125 39.070312 -20.019531 38.6875 -22.03125 C 38.3125 -24.050781 37.90625 -26.367188 37.46875 -28.984375 C 37.25 -29.847656 37.113281 -30.484375 37.0625 -30.890625 C 37.007812 -31.304688 36.957031 -31.648438 36.90625 -31.921875 C 36.90625 -32.085938 36.890625 -32.195312 36.859375 -32.25 C 36.828125 -32.300781 36.8125 -32.351562 36.8125 -32.40625 C 36.757812 -32.46875 36.707031 -32.46875 36.65625 -32.40625 C 36.601562 -32.351562 36.46875 -31.753906 36.25 -30.609375 C 36.132812 -30.179688 35.96875 -29.328125 35.75 -28.046875 C 35.539062 -26.765625 35.21875 -25.0625 34.78125 -22.9375 C 34.070312 -19.34375 33.457031 -16.226562 32.9375 -13.59375 C 32.425781 -10.957031 31.976562 -8.710938 31.59375 -6.859375 C 31.539062 -6.421875 31.445312 -5.847656 31.3125 -5.140625 C 31.175781 -4.429688 31.109375 -4.023438 31.109375 -3.921875 C 30.941406 -3.316406 30.804688 -2.71875 30.703125 -2.125 C 30.484375 -0.539062 30.15625 1.253906 29.71875 3.265625 C 29.664062 3.535156 29.625 3.820312 29.59375 4.125 C 29.5625 4.425781 29.492188 4.765625 29.390625 5.140625 L 29.234375 6.125 L 21.390625 6.125 C 16.222656 6.226562 13.472656 6.226562 13.140625 6.125 C 12.921875 6.125 12.785156 6.015625 12.734375 5.796875 C 12.679688 5.410156 12.597656 4.972656 12.484375 4.484375 C 12.378906 3.992188 12.273438 3.394531 12.171875 2.6875 C 12.109375 2.144531 11.78125 0.078125 11.1875 -3.515625 C 10.75 -5.796875 10.257812 -8.625 9.71875 -12 C 9.175781 -15.375 8.519531 -19.289062 7.75 -23.75 C 7.644531 -24.789062 7.484375 -25.988281 7.265625 -27.34375 C 6.828125 -30.007812 6.390625 -32.726562 5.953125 -35.5 C 5.523438 -38.28125 5.09375 -41.113281 4.65625 -44 C 4.269531 -46.445312 3.984375 -48.320312 3.796875 -49.625 C 3.609375 -50.9375 3.457031 -51.726562 3.34375 -52 C 2.90625 -53.53125 2.085938 -54.539062 0.890625 -55.03125 Z M 0.890625 -55.03125 "/></g></g></g></svg>